<svg width="25" height="24" viewBox="0 0 25 24" fill="none" xmlns="http://www.w3.org/2000/svg">
<path d="M7.92954 19.7726C8.26518 20.0758 8.80791 20.0758 9.13998 19.7726C9.47205 19.4695 9.47562 18.9792 9.13998 18.6793L7.17613 16.9055L17.3913 16.9022C17.8662 16.9022 18.2482 16.5571 18.2482 16.1282C18.2482 15.6993 17.8662 15.3542 17.3913 15.3542H7.17613L9.13998 13.5803C9.47562 13.2772 9.47562 12.7869 9.13998 12.487C8.80434 12.1871 8.26161 12.1838 7.92954 12.487L4.50173 15.5799C4.16609 15.8831 4.16609 16.3733 4.50173 16.6733L7.92954 19.7694V19.7726ZM19.9983 8.42008C20.3339 8.11691 20.3339 7.62669 19.9983 7.32675L16.5705 4.22737C16.2348 3.92421 15.6921 3.92421 15.36 4.22737C15.028 4.53054 15.0244 5.02076 15.36 5.3207L17.3239 7.09454L7.10874 7.09776C6.63384 7.09776 6.25179 7.44285 6.25179 7.8718C6.25179 8.30075 6.63384 8.64584 7.10874 8.64584H17.3239L15.36 10.4197C15.0244 10.7228 15.0244 11.2131 15.36 11.513C15.6957 11.8129 16.2384 11.8162 16.5705 11.513L19.9983 8.41685V8.42008Z" fill="#000A19"/>
</svg>
