<svg width="25" height="24" viewBox="0 0 25 24" fill="none" xmlns="http://www.w3.org/2000/svg">
<path d="M19.25 12C19.25 10.2761 18.5652 8.62279 17.3462 7.40381C16.1272 6.18482 14.4739 5.5 12.75 5.5C11.0261 5.5 9.37279 6.18482 8.15381 7.40381C6.93482 8.62279 6.25 10.2761 6.25 12C6.25 13.7239 6.93482 15.3772 8.15381 16.5962C9.37279 17.8152 11.0261 18.5 12.75 18.5C14.4739 18.5 16.1272 17.8152 17.3462 16.5962C18.5652 15.3772 19.25 13.7239 19.25 12ZM4.75 12C4.75 9.87827 5.59285 7.84344 7.09315 6.34315C8.59344 4.84285 10.6283 4 12.75 4C14.8717 4 16.9066 4.84285 18.4069 6.34315C19.9071 7.84344 20.75 9.87827 20.75 12C20.75 14.1217 19.9071 16.1566 18.4069 17.6569C16.9066 19.1571 14.8717 20 12.75 20C10.6283 20 8.59344 19.1571 7.09315 17.6569C5.59285 16.1566 4.75 14.1217 4.75 12ZM13.4 8.175V8.61875C13.7031 8.65625 14.0062 8.74062 14.3062 8.825C14.3656 8.84062 14.4219 8.85625 14.4812 8.875C14.8406 8.975 15.0531 9.34688 14.9531 9.70625C14.8531 10.0656 14.4812 10.275 14.1219 10.1781C14.0719 10.1656 14.025 10.15 13.975 10.1375C13.7563 10.075 13.5375 10.0156 13.3156 9.97188C12.9031 9.89375 12.425 9.93125 12.0406 10.0969C11.6969 10.2469 11.4125 10.6094 11.8031 10.8594C12.1094 11.0563 12.4844 11.1562 12.8406 11.2531C12.9156 11.2719 12.9875 11.2937 13.0594 11.3125C13.5469 11.45 14.1687 11.6281 14.6344 11.9469C15.2406 12.3625 15.525 13.0375 15.3906 13.7625C15.2625 14.4625 14.775 14.9219 14.1906 15.1594C13.9469 15.2594 13.6812 15.3219 13.4031 15.3531V15.8281C13.4031 16.2 13.1 16.5031 12.7281 16.5031C12.3563 16.5031 12.0531 16.2 12.0531 15.8281V15.2844C11.6 15.1813 11.1562 15.0375 10.7156 14.8938C10.3625 14.7781 10.1687 14.3937 10.2875 14.0406C10.4062 13.6875 10.7875 13.4938 11.1406 13.6125C11.2188 13.6375 11.2969 13.6656 11.375 13.6906C11.7281 13.8094 12.0906 13.9313 12.4531 13.9906C12.9844 14.0688 13.4094 14.0219 13.6875 13.9094C14.0625 13.7594 14.2406 13.3125 13.8719 13.0625C13.5562 12.8469 13.1656 12.7406 12.7937 12.6406C12.7219 12.6219 12.6531 12.6031 12.5813 12.5813C12.1094 12.4469 11.5187 12.2812 11.075 11.9969C10.4656 11.6062 10.1562 10.9563 10.2875 10.2344C10.4125 9.55312 10.9437 9.1 11.5062 8.85625C11.6781 8.78125 11.8625 8.72187 12.0531 8.67812V8.175C12.0531 7.80313 12.3563 7.5 12.7281 7.5C13.1 7.5 13.4031 7.80313 13.4031 8.175H13.4Z" fill="#0066FF"/>
</svg>
